<?xml version="1.0" encoding="UTF-8" standalone="no"?>
<!-- Created with Inkscape (http://www.inkscape.org/) -->

<svg
   xmlns:dc="http://purl.org/dc/elements/1.1/"
   xmlns:cc="http://creativecommons.org/ns#"
   xmlns:rdf="http://www.w3.org/1999/02/22-rdf-syntax-ns#"
   xmlns:svg="http://www.w3.org/2000/svg"
   xmlns="http://www.w3.org/2000/svg"
   xmlns:sodipodi="http://sodipodi.sourceforge.net/DTD/sodipodi-0.dtd"
   xmlns:inkscape="http://www.inkscape.org/namespaces/inkscape"
   id="svg2"
   version="1.1"
   inkscape:version="0.48.1 r9760"
   width="72"
   height="68"
   sodipodi:docname="water_tiles.png">
  <metadata
     id="metadata8">
    <rdf:RDF>
      <cc:Work
         rdf:about="">
        <dc:format>image/svg+xml</dc:format>
        <dc:type
           rdf:resource="http://purl.org/dc/dcmitype/StillImage" />
        <dc:title></dc:title>
      </cc:Work>
    </rdf:RDF>
  </metadata>
  <defs
     id="defs6" />
  <sodipodi:namedview
     pagecolor="#ffffff"
     bordercolor="#666666"
     borderopacity="1"
     objecttolerance="10"
     gridtolerance="10"
     guidetolerance="10"
     inkscape:pageopacity="0"
     inkscape:pageshadow="2"
     inkscape:window-width="737"
     inkscape:window-height="577"
     id="namedview4"
     showgrid="false"
     inkscape:zoom="1"
     inkscape:cx="36"
     inkscape:cy="36.607362"
     inkscape:window-x="68"
     inkscape:window-y="57"
     inkscape:window-maximized="0"
     inkscape:current-layer="svg2" />
  <g
     id="g2987">
    <path
       style="fill:#77a7f7"
       d="M 0,34 0,0 36,0 72,0 72,34 72,68 36,68 0,68 0,34 z"
       id="path2995"
       inkscape:connector-curvature="0" />
    <path
       style="fill:#2f67f7"
       d="M 1.25,67.337719 C 0.40645267,66.997341 0,64.402524 0,59.35765 0,54.628505 0.36739631,52.109029 1,52.5 1.55,52.839919 2,52.416476 2,51.559017 2,50.701558 1.55,50 1,50 0.42152822,50 0,46.813661 0,42.440983 0,37.656282 0.36702078,35.108797 1,35.5 1.55,35.839919 2,35.416476 2,34.559017 2,33.701558 1.55,33 1,33 0.42152822,33 0,29.813661 0,25.440983 0,20.656282 0.36702078,18.108797 1,18.5 1.55,18.839919 2,18.416476 2,17.559017 2,16.701558 1.55,16 1,16 0.42152822,16 0,12.813661 0,8.440983 0,3.6562824 0.36702078,1.1087973 1,1.5 1.55,1.8399187 2,1.6581608 2,1.0960936 c 0,-1.36811687 13.119839,-1.23598428 14.792382,0.1489771 0.923799,0.7649584 1.62253,0.7400173 2.45,-0.087452 C 20.528852,-0.12885164 34,-0.46833561 34,0.78571429 c 0,0.43214281 0.9,0.78571431 2,0.78571431 1.1,0 2,-0.336887 2,-0.74863771 0,-1.1626564 13.338171,-0.7818901 14.792382,0.42227981 0.923799,0.7649584 1.62253,0.7400173 2.45,-0.087452 C 56.717474,-0.31747356 70,-0.40621926 70,1.059017 c 0,0.5824593 0.405,0.8087132 0.9,0.5027864 0.503042,-0.310897 0.9,2.7807881 0.9,7.0095982 0,5.7572624 -0.307605,7.4477894 -1.286815,7.0720314 -0.861472,-0.330577 -1.121378,0.138834 -0.78631,1.420138 0.275278,1.052664 0.854345,1.695249 1.286815,1.427968 0.432471,-0.267281 0.78631,2.918657 0.78631,7.079863 0,5.757262 -0.307605,7.447789 -1.286815,7.072031 -0.861472,-0.330577 -1.121378,0.138834 -0.78631,1.420138 0.275278,1.052664 0.854345,1.695249 1.286815,1.427968 0.432471,-0.267281 0.78631,2.918657 0.78631,7.079863 0,5.757262 -0.307605,7.447789 -1.286815,7.072031 -0.861472,-0.330577 -1.121378,0.138834 -0.78631,1.420138 0.275278,1.052664 0.854345,1.695249 1.286815,1.427968 0.432471,-0.267281 0.78631,2.918657 0.78631,7.079863 0,6.203029 -0.261531,7.46547 -1.451938,7.008668 -0.805863,-0.309239 -1.181857,-0.120162 -0.844981,0.424916 0.386415,0.625232 -3.736205,0.921777 -11.345915,0.816125 -10.940044,-0.151891 -11.809248,-0.299629 -10.257889,-1.743532 0.932241,-0.867668 1.168311,-1.232315 0.524601,-0.810326 -0.64371,0.421989 -1.907522,0.484386 -2.80847,0.138659 -1.212546,-0.465297 -1.477459,-0.209999 -1.01976,0.982747 C 45.075551,67.639266 44.5729,68 42.350387,68 c -1.574975,0 -4.331803,-0.421078 -6.126284,-0.935728 -2.000419,-0.573713 -3.040501,-0.576215 -2.688378,-0.0065 0.343592,0.555943 -4.227569,0.86259 -11.378559,0.763307 C 11.217122,67.669188 10.347918,67.52145 11.899277,66.077547 12.831518,65.209879 13.067588,64.845232 12.423878,65.267221 11.780168,65.68921 10.516356,65.751607 9.6154076,65.40588 8.4028618,64.940615 8.1379485,65.195913 8.5956482,66.388659 9.0916419,67.681198 8.5498013,67.98438 5.8569888,67.921053 4.010645,67.877632 1.9375,67.615132 1.25,67.337719 z M 31,62.606989 C 31,62.390833 30.301628,61.945987 29.448062,61.618443 28.558137,61.276947 28.15674,61.444594 28.507079,62.011454 29.094337,62.961658 31,63.416902 31,62.606989 z m 36,0 C 67,62.390833 66.301628,61.945987 65.448062,61.618443 64.558137,61.276947 64.15674,61.444594 64.507079,62.011454 65.094337,62.961658 67,63.416902 67,62.606989 z M 22,59.5 c 0,-0.157312 -0.6,-0.516264 -1.333333,-0.79767 -0.733334,-0.281407 -1.333334,0.07754 -1.333334,0.79767 0,0.720125 0.6,1.079077 1.333334,0.79767 C 21.4,60.016264 22,59.657312 22,59.5 z m 36,0 c 0,-0.157312 -0.6,-0.516264 -1.333333,-0.79767 -0.733334,-0.281407 -1.333334,0.07754 -1.333334,0.79767 0,0.720125 0.6,1.079077 1.333334,0.79767 C 57.4,60.016264 58,59.657312 58,59.5 z M 19.770833,51.1875 C 19.991944,50.524167 19.247076,50 18.083333,50 c -2.077325,0 -2.699932,1.050068 -1.395833,2.354167 0.926472,0.926472 2.596219,0.294676 3.083333,-1.166667 z M 38,51.402291 c 0,-0.643025 -1.063477,-1.372433 -2.363282,-1.620907 -1.805247,-0.345095 -2.263194,-0.06903 -1.939406,1.169137 C 34.178795,52.791715 38,53.192931 38,51.402291 z M 55.770833,51.1875 C 55.991944,50.524167 55.247076,50 54.083333,50 c -2.077325,0 -2.699932,1.050068 -1.395833,2.354167 0.926472,0.926472 2.596219,0.294676 3.083333,-1.166667 z M 14,47.19722 c 0,-0.24316 -0.617963,0.07075 -1.373252,0.697588 -0.755288,0.626834 -2.072455,0.871389 -2.9270366,0.543455 -1.168078,-0.448234 -1.4245397,-0.102009 -1.0331323,1.394735 0.5154486,1.971079 0.5447052,1.970066 2.9270369,-0.101345 C 12.917127,48.580875 14,47.44038 14,47.19722 z m 36,0 c 0,-0.24316 -0.617963,0.07075 -1.373252,0.697588 -0.755288,0.626834 -2.072455,0.871389 -2.927037,0.543455 -1.168078,-0.448234 -1.424539,-0.102009 -1.033132,1.394735 0.515449,1.971079 0.544705,1.970066 2.927037,-0.101345 C 48.917127,48.580875 50,47.44038 50,47.19722 z M 31,45.606989 C 31,45.390833 30.301628,44.945987 29.448062,44.618443 28.558137,44.276947 28.15674,44.444594 28.507079,45.011454 29.094337,45.961658 31,46.416902 31,45.606989 z m 36,0 C 67,45.390833 66.301628,44.945987 65.448062,44.618443 64.558137,44.276947 64.15674,44.444594 64.507079,45.011454 65.094337,45.961658 67,46.416902 67,45.606989 z M 22,42.5 c 0,-0.157312 -0.6,-0.516264 -1.333333,-0.79767 -0.733334,-0.281407 -1.333334,0.07754 -1.333334,0.79767 0,0.720125 0.6,1.079077 1.333334,0.79767 C 21.4,43.016264 22,42.657312 22,42.5 z m 36,0 c 0,-0.157312 -0.6,-0.516264 -1.333333,-0.79767 -0.733334,-0.281407 -1.333334,0.07754 -1.333334,0.79767 0,0.720125 0.6,1.079077 1.333334,0.79767 C 57.4,43.016264 58,42.657312 58,42.5 z M 19.770833,34.1875 C 19.991944,33.524167 19.247076,33 18.083333,33 c -2.077325,0 -2.699932,1.050068 -1.395833,2.354167 0.926472,0.926472 2.596219,0.294676 3.083333,-1.166667 z M 38,34.402291 c 0,-0.643025 -1.063477,-1.372433 -2.363282,-1.620907 -1.805247,-0.345095 -2.263194,-0.06903 -1.939406,1.169137 C 34.178795,35.791715 38,36.192931 38,34.402291 z M 55.770833,34.1875 C 55.991944,33.524167 55.247076,33 54.083333,33 c -2.077325,0 -2.699932,1.050068 -1.395833,2.354167 0.926472,0.926472 2.596219,0.294676 3.083333,-1.166667 z M 14,30.19722 c 0,-0.24316 -0.617963,0.07075 -1.373252,0.697588 -0.755288,0.626834 -2.072455,0.871389 -2.9270366,0.543455 -1.168078,-0.448234 -1.4245397,-0.102009 -1.0331323,1.394735 0.5154486,1.971079 0.5447052,1.970066 2.9270369,-0.101345 C 12.917127,31.580875 14,30.44038 14,30.19722 z m 36,0 c 0,-0.24316 -0.617963,0.07075 -1.373252,0.697588 -0.755288,0.626834 -2.072455,0.871389 -2.927037,0.543455 -1.168078,-0.448234 -1.424539,-0.102009 -1.033132,1.394735 0.515449,1.971079 0.544705,1.970066 2.927037,-0.101345 C 48.917127,31.580875 50,30.44038 50,30.19722 z M 31,28.606989 C 31,28.390833 30.301628,27.945987 29.448062,27.618443 28.558137,27.276947 28.15674,27.444594 28.507079,28.011454 29.094337,28.961658 31,29.416902 31,28.606989 z m 36,0 C 67,28.390833 66.301628,27.945987 65.448062,27.618443 64.558137,27.276947 64.15674,27.444594 64.507079,28.011454 65.094337,28.961658 67,29.416902 67,28.606989 z M 22,25.5 c 0,-0.157312 -0.6,-0.516264 -1.333333,-0.79767 -0.733334,-0.281407 -1.333334,0.07755 -1.333334,0.79767 0,0.720125 0.6,1.079077 1.333334,0.79767 C 21.4,26.016264 22,25.657312 22,25.5 z m 36,0 c 0,-0.157312 -0.6,-0.516264 -1.333333,-0.79767 -0.733334,-0.281407 -1.333334,0.07755 -1.333334,0.79767 0,0.720125 0.6,1.079077 1.333334,0.79767 C 57.4,26.016264 58,25.657312 58,25.5 z M 19.770833,17.1875 C 19.991944,16.524167 19.247076,16 18.083333,16 c -2.077325,0 -2.699932,1.050068 -1.395833,2.354167 0.926472,0.926472 2.596219,0.294676 3.083333,-1.166667 z M 38,17.402291 c 0,-0.643025 -1.063477,-1.372433 -2.363282,-1.620907 -1.805247,-0.345095 -2.263194,-0.06903 -1.939406,1.169137 C 34.178795,18.791715 38,19.192931 38,17.402291 z M 55.770833,17.1875 C 55.991944,16.524167 55.247076,16 54.083333,16 c -2.077325,0 -2.699932,1.050068 -1.395833,2.354167 0.926472,0.926472 2.596219,0.294676 3.083333,-1.166667 z M 14,13.19722 c 0,-0.24316 -0.617963,0.07076 -1.373252,0.697588 -0.755288,0.626834 -2.072455,0.871389 -2.9270366,0.543455 -1.168078,-0.448234 -1.4245397,-0.102009 -1.0331323,1.394735 0.5154486,1.971079 0.5447052,1.970066 2.9270369,-0.101345 C 12.917127,14.580875 14,13.44038 14,13.19722 z m 36,0 c 0,-0.24316 -0.617963,0.07076 -1.373252,0.697588 -0.755288,0.626834 -2.072455,0.871389 -2.927037,0.543455 -1.168078,-0.448234 -1.424539,-0.102009 -1.033132,1.394735 0.515449,1.971079 0.544705,1.970066 2.927037,-0.101345 C 48.917127,14.580875 50,13.44038 50,13.19722 z M 31,11.606989 C 31,11.390833 30.301628,10.945987 29.448062,10.618443 28.558137,10.276947 28.15674,10.444594 28.507079,11.011454 29.094337,11.961658 31,12.416902 31,11.606989 z m 36,0 C 67,11.390833 66.301628,10.945987 65.448062,10.618443 64.558137,10.276947 64.15674,10.444594 64.507079,11.011454 65.094337,11.961658 67,12.416902 67,11.606989 z M 22,8.5 C 22,8.3426877 21.4,7.983736 20.666667,7.7023296 19.933333,7.4209232 19.333333,7.7798749 19.333333,8.5 c 0,0.7201251 0.6,1.0790768 1.333334,0.7976704 C 21.4,9.016264 22,8.6573123 22,8.5 z m 36,0 C 58,8.3426877 57.4,7.983736 56.666667,7.7023296 55.933333,7.4209232 55.333333,7.7798749 55.333333,8.5 c 0,0.7201251 0.6,1.0790768 1.333334,0.7976704 C 57.4,9.016264 58,8.6573123 58,8.5 z"
       id="path2993"
       inkscape:connector-curvature="0" />
    <path
       style="fill:#1f37f7"
       d="M 2.25,67.294267 C 0.5502554,66.966882 0,66.170398 0,64.037438 0,61.266437 2.204241,59.39016 4.0902421,60.555773 4.5906089,60.865016 5,60.464621 5,59.666006 c 0,-1.653195 2.3867452,-2.841921 4.25,-2.116725 0.6875,0.267581 1.799992,1.666668 2.472204,3.109081 1.993546,4.277691 -0.37593,5.869974 -3.9380102,2.646336 C 5.7136927,61.43092 1.5047653,60.389676 2.4981356,61.996983 2.8390797,62.548643 3.9914763,63 5.059017,63 7.474415,63 7.5726139,64.541529 5.25,65.998059 3.7176247,66.959024 3.7693376,67.022324 5.6658431,66.507072 6.8570567,66.183437 8.1211144,66.38695 8.47486,66.959323 9.1225419,68.007294 6.6442833,68.140643 2.25,67.294267 z m 10.391897,-0.0714 c 1.427753,-0.2224 2.006896,-0.898654 1.736996,-2.028257 -0.636182,-2.662587 0.724505,-3.687077 6.389341,-4.810671 4.257914,-0.844538 5.492088,-0.775201 6.435509,0.361552 0.902232,1.087123 0.808295,1.998114 -0.413709,4.012082 -1.462739,2.410721 -2.131047,2.61283 -8.935509,2.702267 -4.044989,0.05317 -6.390671,-0.05347 -5.212628,-0.236973 z M 27,66.574901 c 0,-0.801277 0.5625,-1.808271 1.25,-2.237764 1.484473,-0.927376 4.176263,-1.430067 3.376815,-0.630619 -0.306046,0.306046 -0.156288,1.304153 0.332797,2.218016 0.726194,1.356906 0.353027,1.702426 -2.035184,1.884401 C 27.928115,67.961049 27,67.569408 27,66.574901 z m 10.298425,0.705315 C 32.519613,66.683592 31.34454,61 36,61 c 1.035081,0 2.160081,0.45 2.5,1 0.339919,0.55 1.491476,1 2.559017,1 2.415398,0 2.513597,1.541529 0.190983,2.998059 -1.532375,0.960965 -1.480662,1.024265 0.415843,0.509013 1.191214,-0.323635 2.455271,-0.120122 2.809017,0.452251 0.646042,1.045318 -0.841281,1.111823 -7.176435,0.320893 z m 11.343472,-0.05734 c 1.427753,-0.2224 2.006896,-0.898654 1.736996,-2.028257 -0.636182,-2.662587 0.724505,-3.687077 6.389341,-4.810671 4.257914,-0.844538 5.492088,-0.775201 6.435509,0.361552 0.902232,1.087123 0.808295,1.998114 -0.413709,4.012082 -1.462739,2.410721 -2.131047,2.61283 -8.935509,2.702267 -4.044989,0.05317 -6.390671,-0.05347 -5.212628,-0.236973 z M 63,66.574901 c 0,-0.801277 0.5625,-1.808271 1.25,-2.237764 1.484473,-0.927376 4.176263,-1.430067 3.376815,-0.630619 -0.306046,0.306046 -0.156288,1.304153 0.332797,2.218016 0.726194,1.356906 0.353027,1.702426 -2.035184,1.884401 C 63.928115,67.961049 63,67.569408 63,66.574901 z m 6.50284,-1.565952 C 68.821354,62.861777 69.544051,61 71.059017,61 71.576558,61 72,62.35 72,64 c 0,3.3948 -1.542158,4.017891 -2.49716,1.008949 z M 43.521341,63.023581 c -0.983749,-1.08703 -2.087479,-1.791722 -2.452734,-1.565983 -0.365254,0.22574 -1.317613,-0.05232 -2.116353,-0.617913 -1.183992,-0.838391 -1.128992,-0.924361 0.297746,-0.465402 1.085473,0.34918 1.75,0.0459 1.75,-0.798679 0,-0.748895 0.675,-1.620648 1.5,-1.93723 2.027506,-0.778027 4.5,0.271188 4.5,1.909598 0,0.733697 0.519529,1.65508 1.154508,2.04752 0.7153,0.442079 0.883063,0.274316 0.440984,-0.440984 C 48.203052,60.519529 48.358524,60 48.940983,60 c 1.326413,0 1.331254,0.622803 0.02383,3.065741 -1.322877,2.47182 -3.181381,2.457426 -5.443475,-0.04216 z M 12.5,61 C 12.160081,60.45 12.358524,60 12.940983,60 13.523442,60 14,60.45 14,61 14,61.55 13.801558,62 13.559017,62 13.316476,62 12.839919,61.55 12.5,61 z M 28.75,60.9199 C 27.7875,60.359296 27,59.521764 27,59.058718 c 0,-1.51055 5.12093,-2.203244 6.685953,-0.904391 1.314504,1.090941 1.279939,1.397445 -0.286783,2.54306 -2.105594,1.539648 -2.36636,1.552129 -4.64917,0.222514 z m 36,0 C 63.7875,60.359296 63,59.521764 63,59.058718 c 0,-1.51055 5.12093,-2.203244 6.685953,-0.904391 1.314504,1.090941 1.279939,1.397445 -0.286783,2.54306 -2.105594,1.539648 -2.36636,1.552129 -4.64917,0.222514 z M 0,56.380196 C 0,52.753367 0.03432991,52.721093 2,54.5 4.5136993,56.774867 4.5136993,57.654709 2,59 0.16794748,59.980485 0,59.76049 0,56.380196 z m 11.472432,1.34975 c -2.396778,-2.061622 -2.5248873,-2.520713 -1.395249,-5 1.554009,-3.410677 3.551957,-3.471136 6.136291,-0.185687 1.713076,2.177823 2.165878,2.330763 3.14392,1.061901 1.410317,-1.829672 6.253745,-1.061898 7.092677,1.124323 1.005411,2.620059 -1.471147,4.488145 -5.057959,3.815255 -1.824413,-0.342262 -3.514035,-0.15748 -3.873148,0.423578 -1.020142,1.650624 -3.208088,1.202156 -6.046532,-1.23937 z M 35.25,58.435704 c -1.479891,-1.599811 -1.536078,-2.435007 -0.295737,-4.395941 0.790469,-1.249701 1.220797,-1.191311 2.984687,0.404988 2.518118,2.278865 2.583571,3.207593 0.31105,4.413563 -1.200751,0.637209 -2.142321,0.50457 -3,-0.42261 z m 12.222432,-0.705758 c -2.396778,-2.061622 -2.524887,-2.520713 -1.395249,-5 1.554009,-3.410677 3.551957,-3.471136 6.136291,-0.185687 1.713076,2.177823 2.165878,2.330763 3.14392,1.061901 1.410317,-1.829672 6.253745,-1.061898 7.092677,1.124323 1.005411,2.620059 -1.471147,4.488145 -5.057959,3.815255 -1.824413,-0.342262 -3.514035,-0.15748 -3.873148,0.423578 -1.020142,1.650624 -3.208088,1.202156 -6.046532,-1.23937 z M 70.015313,56.75 C 70.023735,56.0625 70.466844,54.825 71,54 71.755385,52.831125 71.972755,53.107063 71.984687,55.25 71.993109,56.7625 71.55,58 71,58 70.45,58 70.006891,57.4375 70.015313,56.75 z M 28,56.008371 c 0,-0.619523 0.354516,-0.907302 0.787813,-0.63951 0.433297,0.267792 1.410584,-0.920043 2.171749,-2.639633 1.357984,-3.0679 1.402606,-3.084688 2.37956,-0.895251 1.108642,2.48456 0.381365,3.572494 -3.089122,4.621016 C 28.846006,56.879175 28,56.711244 28,56.008371 z m 36,0 c 0,-0.619523 0.354516,-0.907302 0.787813,-0.63951 0.433297,0.267792 1.410584,-0.920043 2.171749,-2.639633 1.357984,-3.0679 1.402606,-3.084688 2.37956,-0.895251 1.108642,2.48456 0.381365,3.572494 -3.089122,4.621016 C 64.846006,56.879175 64,56.711244 64,56.008371 z M 2.9872075,54.484586 c -1.0399348,-1.253045 -0.8615092,-1.859013 1.030565,-3.5 C 5.2763083,49.893064 6.6606074,49 7.0939927,49 c 1.4296421,0 2.1040324,2.074869 1.4810985,4.556835 -0.6993755,2.786535 -3.6400319,3.274769 -5.5878837,0.927751 z m 36.0000005,0 c -1.039935,-1.253045 -0.86151,-1.859013 1.030564,-3.5 C 41.276308,49.893064 42.660607,49 43.093993,49 c 1.429642,0 2.104032,2.074869 1.481098,4.556835 -0.699375,2.786535 -3.640032,3.274769 -5.587883,0.927751 z M 27,51.059017 c 0,-2.81254 1.159981,-4.298912 3.65063,-4.677828 1.4784,-0.224918 1.029891,4.093907 -0.633265,6.097887 C 28.082512,54.810432 27,54.30097 27,51.059017 z m 36,0 c 0,-2.81254 1.159981,-4.298912 3.65063,-4.677828 1.4784,-0.224918 1.029891,4.093907 -0.633265,6.097887 C 64.082512,54.810432 63,54.30097 63,51.059017 z M 22,51 c 0,-0.55 -1.548442,-1 -3.440983,-1 -3.790986,0 -4.981125,-1.094695 -4.124487,-3.793722 0.771078,-2.429453 11.123596,-4.44363 12.752362,-2.481087 0.819019,0.986857 0.621925,2.214624 -0.770609,4.800404 C 24.671193,51.766031 22,53.262677 22,51 z m 36,0 c 0,-0.55 -1.548442,-1 -3.440983,-1 -3.790986,0 -4.981125,-1.094695 -4.124487,-3.793722 0.771078,-2.429453 11.123596,-4.44363 12.752362,-2.481087 0.819019,0.986857 0.621925,2.214624 -0.770609,4.800404 C 60.671193,51.766031 58,53.262677 58,51 z M 0,47.106989 C 0,44.26899 2.1807396,42.375635 4.0902421,43.555773 4.5906089,43.865016 5,43.464621 5,42.666006 c 0,-0.798616 0.675,-1.71105 1.5,-2.027632 2.027506,-0.778027 4.5,0.271188 4.5,1.909598 0,0.733697 0.519529,1.65508 1.154508,2.04752 0.7153,0.442079 0.883063,0.274316 0.440984,-0.440984 C 12.203052,43.519529 12.358524,43 12.940983,43 c 1.326413,0 1.331254,0.622803 0.02383,3.065741 -1.274429,2.381294 -2.738734,2.448835 -5.1806222,0.238957 C 5.7136927,44.43092 1.5047653,43.389676 2.4981356,44.996983 2.8390797,45.548643 3.9914763,46 5.059017,46 c 2.49432,0 2.4980204,1.631515 0.00672,2.964816 C 1.6069649,50.815897 0,50.226553 0,47.106989 z m 33.50284,0.90196 c -0.347564,-1.095079 -0.351331,-2.445079 -0.0084,-3 C 34.298577,43.707875 37.697667,43.701798 38.5,45 c 0.339919,0.55 1.491476,1 2.559017,1 2.49432,0 2.49802,1.631515 0.0067,2.964816 -3.208825,1.717311 -6.86097,1.25572 -7.562901,-0.955867 z m 36,0 C 68.821354,45.861777 69.544051,44 71.059017,44 71.576558,44 72,45.35 72,47 c 0,3.3948 -1.542158,4.017891 -2.49716,1.008949 z M 43.521341,46.023581 c -0.983749,-1.08703 -2.087479,-1.791722 -2.452734,-1.565983 -0.365254,0.22574 -1.317613,-0.05232 -2.116353,-0.617913 -1.183992,-0.838391 -1.128992,-0.924361 0.297746,-0.465402 1.085473,0.34918 1.75,0.0459 1.75,-0.798679 0,-0.748895 0.675,-1.620648 1.5,-1.93723 2.027506,-0.778027 4.5,0.271188 4.5,1.909598 0,0.733697 0.519529,1.65508 1.154508,2.04752 0.7153,0.442079 0.883063,0.274316 0.440984,-0.440984 C 48.203052,43.519529 48.358524,43 48.940983,43 c 1.326413,0 1.331254,0.622803 0.02383,3.065741 -1.322877,2.47182 -3.181381,2.457426 -5.443475,-0.04216 z M 28.75,43.919901 C 27.7875,43.359296 27,42.521764 27,42.058718 c 0,-1.51055 5.12093,-2.203244 6.685953,-0.904391 1.314504,1.090941 1.279939,1.397445 -0.286783,2.54306 -2.105594,1.539648 -2.36636,1.552129 -4.64917,0.222514 z m 36,0 C 63.7875,43.359296 63,42.521764 63,42.058718 c 0,-1.51055 5.12093,-2.203244 6.685953,-0.904391 1.314504,1.090941 1.279939,1.397445 -0.286783,2.54306 -2.105594,1.539648 -2.36636,1.552129 -4.64917,0.222514 z M 0,39.380196 C 0,35.753367 0.03432991,35.721093 2,37.5 4.5136993,39.774867 4.5136993,40.654709 2,42 0.16794748,42.980485 0,42.76049 0,39.380196 z m 11.472432,1.34975 c -2.396778,-2.061622 -2.5248873,-2.520713 -1.395249,-5 1.554009,-3.410677 3.551957,-3.471136 6.136291,-0.185687 1.713076,2.177823 2.165878,2.330763 3.14392,1.061901 1.410317,-1.829672 6.253745,-1.061898 7.092677,1.124323 1.005411,2.620059 -1.471147,4.488145 -5.057959,3.815255 -1.824413,-0.342262 -3.514035,-0.15748 -3.873148,0.423578 -1.020142,1.650624 -3.208088,1.202156 -6.046532,-1.23937 z M 35.25,41.435704 c -1.479891,-1.599811 -1.536078,-2.435007 -0.295737,-4.395941 0.790469,-1.249701 1.220797,-1.191311 2.984687,0.404988 2.518118,2.278865 2.583571,3.207593 0.31105,4.413563 -1.200751,0.637209 -2.142321,0.50457 -3,-0.42261 z m 12.222432,-0.705758 c -2.396778,-2.061622 -2.524887,-2.520713 -1.395249,-5 1.554009,-3.410677 3.551957,-3.471136 6.136291,-0.185687 1.713076,2.177823 2.165878,2.330763 3.14392,1.061901 1.410317,-1.829672 6.253745,-1.061898 7.092677,1.124323 1.005411,2.620059 -1.471147,4.488145 -5.057959,3.815255 -1.824413,-0.342262 -3.514035,-0.15748 -3.873148,0.423578 -1.020142,1.650624 -3.208088,1.202156 -6.046532,-1.23937 z M 70.015313,39.75 C 70.023735,39.0625 70.466844,37.825 71,37 71.755385,35.831125 71.972755,36.107063 71.984687,38.25 71.993109,39.7625 71.55,41 71,41 70.45,41 70.006891,40.4375 70.015313,39.75 z M 28,39.008371 c 0,-0.619523 0.354516,-0.907302 0.787813,-0.63951 0.433297,0.267792 1.410584,-0.920043 2.171749,-2.639633 1.357984,-3.0679 1.402606,-3.084688 2.37956,-0.895251 1.108642,2.48456 0.381365,3.572494 -3.089122,4.621016 C 28.846006,39.879175 28,39.711244 28,39.008371 z m 36,0 c 0,-0.619523 0.354516,-0.907302 0.787813,-0.63951 0.433297,0.267792 1.410584,-0.920043 2.171749,-2.639633 1.357984,-3.0679 1.402606,-3.084688 2.37956,-0.895251 1.108642,2.48456 0.381365,3.572494 -3.089122,4.621016 C 64.846006,39.879175 64,39.711244 64,39.008371 z M 2.9872075,37.484586 c -1.0399348,-1.253045 -0.8615092,-1.859013 1.030565,-3.5 C 5.2763083,32.893064 6.6606074,32 7.0939927,32 c 1.4296421,0 2.1040324,2.074869 1.4810985,4.556835 -0.6993755,2.786535 -3.6400319,3.274769 -5.5878837,0.927751 z m 36.0000005,0 c -1.039935,-1.253045 -0.86151,-1.859013 1.030564,-3.5 C 41.276308,32.893064 42.660607,32 43.093993,32 c 1.429642,0 2.104032,2.074869 1.481098,4.556835 -0.699375,2.786535 -3.640032,3.274769 -5.587883,0.927751 z M 27,34.059017 c 0,-2.81254 1.159981,-4.298912 3.65063,-4.677828 1.4784,-0.224918 1.029891,4.093907 -0.633265,6.097887 C 28.082512,37.810432 27,37.30097 27,34.059017 z m 36,0 c 0,-2.81254 1.159981,-4.298912 3.65063,-4.677828 1.4784,-0.224918 1.029891,4.093907 -0.633265,6.097887 C 64.082512,37.810432 63,37.30097 63,34.059017 z M 22,34 c 0,-0.55 -1.548442,-1 -3.440983,-1 -3.790986,0 -4.981125,-1.094695 -4.124487,-3.793722 0.771078,-2.429453 11.123596,-4.44363 12.752362,-2.481087 0.819019,0.986857 0.621925,2.214624 -0.770609,4.800404 C 24.671193,34.766031 22,36.262677 22,34 z m 36,0 c 0,-0.55 -1.548442,-1 -3.440983,-1 -3.790986,0 -4.981125,-1.094695 -4.124487,-3.793722 0.771078,-2.429453 11.123596,-4.44363 12.752362,-2.481087 0.819019,0.986857 0.621925,2.214624 -0.770609,4.800404 C 60.671193,34.766031 58,36.262677 58,34 z M 0,30.106989 C 0,27.26899 2.1807396,25.375635 4.0902421,26.555773 4.5906089,26.865016 5,26.464621 5,25.666006 c 0,-0.798616 0.675,-1.71105 1.5,-2.027632 2.027506,-0.778027 4.5,0.271188 4.5,1.909598 0,0.733697 0.519529,1.65508 1.154508,2.04752 0.7153,0.442079 0.883063,0.274316 0.440984,-0.440984 C 12.203052,26.519529 12.358524,26 12.940983,26 c 1.326413,0 1.331254,0.622803 0.02383,3.065741 -1.274429,2.381294 -2.738734,2.448835 -5.1806222,0.238957 C 5.7136927,27.43092 1.5047653,26.389676 2.4981356,27.996983 2.8390797,28.548643 3.9914763,29 5.059017,29 c 2.49432,0 2.4980204,1.631515 0.00672,2.964816 C 1.6069649,33.815897 0,33.226553 0,30.106989 z m 33.50284,0.90196 c -0.347564,-1.095079 -0.351331,-2.445079 -0.0084,-3 C 34.298577,26.707875 37.697667,26.701798 38.5,28 c 0.339919,0.55 1.491476,1 2.559017,1 2.49432,0 2.49802,1.631515 0.0067,2.964816 -3.208825,1.717311 -6.86097,1.25572 -7.562901,-0.955867 z m 36,0 C 68.821354,28.861777 69.544051,27 71.059017,27 71.576558,27 72,28.35 72,30 c 0,3.3948 -1.542158,4.017891 -2.49716,1.008949 z M 43.521341,29.023581 c -0.983749,-1.08703 -2.087479,-1.791722 -2.452734,-1.565983 -0.365254,0.22574 -1.317613,-0.05232 -2.116353,-0.617913 -1.183992,-0.838391 -1.128992,-0.924361 0.297746,-0.465402 1.085473,0.34918 1.75,0.0459 1.75,-0.798679 0,-0.748895 0.675,-1.620648 1.5,-1.93723 2.027506,-0.778027 4.5,0.271188 4.5,1.909598 0,0.733697 0.519529,1.65508 1.154508,2.04752 0.7153,0.442079 0.883063,0.274316 0.440984,-0.440984 C 48.203052,26.519529 48.358524,26 48.940983,26 c 1.326413,0 1.331254,0.622803 0.02383,3.065741 -1.322877,2.47182 -3.181381,2.457426 -5.443475,-0.04216 z M 28.75,26.919901 C 27.7875,26.359296 27,25.521764 27,25.058718 c 0,-1.51055 5.12093,-2.203244 6.685953,-0.904391 1.314504,1.090941 1.279939,1.397445 -0.286783,2.54306 -2.105594,1.539648 -2.36636,1.552129 -4.64917,0.222514 z m 36,0 C 63.7875,26.359296 63,25.521764 63,25.058718 c 0,-1.51055 5.12093,-2.203244 6.685953,-0.904391 1.314504,1.090941 1.279939,1.397445 -0.286783,2.54306 -2.105594,1.539648 -2.36636,1.552129 -4.64917,0.222514 z M 0,22.380196 C 0,18.753367 0.03432991,18.721093 2,20.5 4.5136993,22.774867 4.5136993,23.654709 2,25 0.16794748,25.980485 0,25.76049 0,22.380196 z m 11.472432,1.34975 c -2.396778,-2.061622 -2.5248873,-2.520713 -1.395249,-5 1.554009,-3.410677 3.551957,-3.471136 6.136291,-0.185687 1.713076,2.177823 2.165878,2.330763 3.14392,1.061901 1.410317,-1.829672 6.253745,-1.061898 7.092677,1.124323 1.005411,2.620059 -1.471147,4.488145 -5.057959,3.815255 -1.824413,-0.342262 -3.514035,-0.15748 -3.873148,0.423578 -1.020142,1.650624 -3.208088,1.202156 -6.046532,-1.23937 z M 35.25,24.435704 c -1.479891,-1.599811 -1.536078,-2.435007 -0.295737,-4.395941 0.790469,-1.249701 1.220797,-1.191311 2.984687,0.404988 2.518118,2.278865 2.583571,3.207593 0.31105,4.413563 -1.200751,0.637209 -2.142321,0.50457 -3,-0.42261 z m 12.222432,-0.705758 c -2.396778,-2.061622 -2.524887,-2.520713 -1.395249,-5 1.554009,-3.410677 3.551957,-3.471136 6.136291,-0.185687 1.713076,2.177823 2.165878,2.330763 3.14392,1.061901 1.410317,-1.829672 6.253745,-1.061898 7.092677,1.124323 1.005411,2.620059 -1.471147,4.488145 -5.057959,3.815255 -1.824413,-0.342262 -3.514035,-0.15748 -3.873148,0.423578 -1.020142,1.650624 -3.208088,1.202156 -6.046532,-1.23937 z M 70.015313,22.75 C 70.023735,22.0625 70.466844,20.825 71,20 71.755385,18.831125 71.972755,19.107063 71.984687,21.25 71.993109,22.7625 71.55,24 71,24 70.45,24 70.006891,23.4375 70.015313,22.75 z M 28,22.008371 c 0,-0.619523 0.354516,-0.907302 0.787813,-0.63951 0.433297,0.267792 1.410584,-0.920043 2.171749,-2.639633 1.357984,-3.0679 1.402606,-3.084688 2.37956,-0.895251 1.108642,2.48456 0.381365,3.572494 -3.089122,4.621016 C 28.846006,22.879175 28,22.711244 28,22.008371 z m 36,0 c 0,-0.619523 0.354516,-0.907302 0.787813,-0.63951 0.433297,0.267792 1.410584,-0.920043 2.171749,-2.639633 1.357984,-3.0679 1.402606,-3.084688 2.37956,-0.895251 1.108642,2.48456 0.381365,3.572494 -3.089122,4.621016 C 64.846006,22.879175 64,22.711244 64,22.008371 z M 2.9872075,20.484586 c -1.0399348,-1.253045 -0.8615092,-1.859013 1.030565,-3.5 C 5.2763083,15.893064 6.6606074,15 7.0939927,15 c 1.4296421,0 2.1040324,2.074869 1.4810985,4.556835 -0.6993755,2.786535 -3.6400319,3.274769 -5.5878837,0.927751 z m 36.0000005,0 c -1.039935,-1.253045 -0.86151,-1.859013 1.030564,-3.5 C 41.276308,15.893064 42.660607,15 43.093993,15 c 1.429642,0 2.104032,2.074869 1.481098,4.556835 -0.699375,2.786535 -3.640032,3.274769 -5.587883,0.927751 z M 27,17.059017 c 0,-2.81254 1.159981,-4.298912 3.65063,-4.677828 1.4784,-0.224918 1.029891,4.093907 -0.633265,6.097887 C 28.082512,20.810432 27,20.30097 27,17.059017 z m 36,0 c 0,-2.81254 1.159981,-4.298912 3.65063,-4.677828 1.4784,-0.224918 1.029891,4.093907 -0.633265,6.097887 C 64.082512,20.810432 63,20.30097 63,17.059017 z M 22,17 C 22,16.45 20.451558,16 18.559017,16 14.768031,16 13.577892,14.905305 14.43453,12.206278 15.205608,9.7768246 25.558126,7.7626484 27.186892,9.7251906 28.005911,10.712048 27.808817,11.939815 26.416283,14.525595 24.671193,17.766031 22,19.262677 22,17 z m 36,0 C 58,16.45 56.451558,16 54.559017,16 50.768031,16 49.577892,14.905305 50.43453,12.206278 51.205608,9.7768246 61.558126,7.7626484 63.186892,9.7251906 64.005911,10.712048 63.808817,11.939815 62.416283,14.525595 60.671193,17.766031 58,19.262677 58,17 z M 0,13.106989 C 0,10.26899 2.1807396,8.3756353 4.0902421,9.5557727 4.5906089,9.8650164 5,9.4646213 5,8.6660058 5,7.8673903 5.675,6.9549558 6.5,6.6383736 8.527506,5.8603465 11,6.9095621 11,8.5479718 c 0,0.7336968 0.519529,1.6550802 1.154508,2.0475202 0.7153,0.442079 0.883063,0.274316 0.440984,-0.440984 C 12.203052,9.5195288 12.358524,9 12.940983,9 c 1.326413,0 1.331254,0.6228026 0.02383,3.065741 -1.274429,2.381294 -2.738734,2.448835 -5.1806222,0.238957 C 5.7136927,10.43092 1.5047653,9.3896764 2.4981356,10.996983 2.8390797,11.548643 3.9914763,12 5.059017,12 c 2.49432,0 2.4980204,1.631515 0.00672,2.964816 C 1.6069649,16.815897 0,16.226553 0,13.106989 z m 33.50284,0.90196 c -0.347564,-1.095079 -0.351331,-2.445079 -0.0084,-3 C 34.298577,9.7078746 37.697667,9.701798 38.5,11 c 0.339919,0.55 1.491476,1 2.559017,1 2.49432,0 2.49802,1.631515 0.0067,2.964816 -3.208825,1.717311 -6.86097,1.25572 -7.562901,-0.955867 z m 36,0 C 68.821354,11.861777 69.544051,10 71.059017,10 71.576558,10 72,11.35 72,13 c 0,3.3948 -1.542158,4.017891 -2.49716,1.008949 z M 43.521341,12.023581 c -0.983749,-1.08703 -2.087479,-1.791722 -2.452734,-1.565983 -0.365254,0.22574 -1.317613,-0.05232 -2.116353,-0.6179132 C 37.768262,9.0012935 37.823262,8.9153239 39.25,9.374283 40.335473,9.7234626 41,9.4201806 41,8.575604 41,7.8267095 41.675,6.9549558 42.5,6.6383736 44.527506,5.8603465 47,6.9095621 47,8.5479718 c 0,0.7336968 0.519529,1.6550802 1.154508,2.0475202 0.7153,0.442079 0.883063,0.274316 0.440984,-0.440984 C 48.203052,9.5195288 48.358524,9 48.940983,9 c 1.326413,0 1.331254,0.6228026 0.02383,3.065741 -1.322877,2.47182 -3.181381,2.457426 -5.443475,-0.04216 z M 28.75,9.9199012 C 27.7875,9.3592964 27,8.5217639 27,8.0587179 27,6.5481678 32.12093,5.8554737 33.685953,7.1543275 35.000457,8.2452684 34.965892,8.5517721 33.39917,9.6973869 31.293576,11.237035 31.03281,11.249516 28.75,9.9199012 z m 36,0 C 63.7875,9.3592964 63,8.5217639 63,8.0587179 63,6.5481678 68.12093,5.8554737 69.685953,7.1543275 71.000457,8.2452684 70.965892,8.5517721 69.39917,9.6973869 67.293576,11.237035 67.03281,11.249516 64.75,9.9199012 z M 0,5.3801962 C 0,1.7533665 0.03432991,1.721093 2,3.5 4.5136993,5.7748666 4.5136993,6.654709 2,8 0.16794748,8.9804848 0,8.76049 0,5.3801962 z m 11.421132,1.3056234 c -2.3297826,-2.0039949 -2.5335964,-2.6071609 -1.5205796,-4.5 1.4437196,-2.69761456 4.2233156,-2.81141607 6.5258186,-0.2671784 1.711804,1.8915215 1.763466,1.8915215 3.654988,0 C 21.136611,0.86338853 22.7875,0.03162837 23.75,0.07028526 25.246439,0.13038673 25.210215,0.26509521 23.5,1 21.554856,1.8358571 21.558778,1.8613573 23.643011,1.9297147 26.244767,2.0150456 27.482148,4.714121 25.831384,6.7031699 25.0086,7.694564 23.605231,7.9609216 21.392112,7.5457378 19.567699,7.203476 17.878077,7.3882578 17.518964,7.9693162 16.493756,9.6281371 14.306571,9.1677694 11.421132,6.6858196 z M 35.25,7.435704 C 33.770109,5.8358933 33.713922,5.0006971 34.954263,3.0397633 35.744732,1.7900616 36.17506,1.8484521 37.93895,3.4447509 40.457068,5.7236157 40.522521,6.6523438 38.25,7.858314 c -1.200751,0.6372088 -2.142321,0.5045699 -3,-0.42261 z M 47.421132,6.6858196 c -2.329783,-2.0039949 -2.533596,-2.6071609 -1.52058,-4.5 1.44372,-2.69761456 4.223316,-2.81141607 6.525819,-0.2671784 1.711804,1.8915215 1.763466,1.8915215 3.654988,0 C 57.136611,0.86338853 58.7875,0.03162837 59.75,0.07028526 61.246439,0.13038673 61.210215,0.26509521 59.5,1 57.554856,1.8358571 57.558778,1.8613573 59.643011,1.9297147 62.244767,2.0150456 63.482148,4.714121 61.831384,6.7031699 61.0086,7.694564 59.605231,7.9609216 57.392112,7.5457378 55.567699,7.203476 53.878077,7.3882578 53.518964,7.9693162 52.493756,9.6281371 50.306571,9.1677694 47.421132,6.6858196 z M 70.015313,5.75 C 70.023735,5.0625 70.466844,3.825 71,3 71.755385,1.8311253 71.972755,2.107063 71.984687,4.25 71.993109,5.7625 71.55,7 71,7 70.45,7 70.006891,6.4375 70.015313,5.75 z M 28,5.0083707 C 28,4.3888481 28.45,4.1600813 29,4.5 29.55,4.8399187 30,4.4715765 30,3.6814617 30,2.891347 30.669675,1.6891085 31.488167,1.0098206 32.69654,0.00695984 33.097529,0.09058254 33.620949,1.4545933 34.3635,3.3896492 33.433647,4.4931324 30.25,5.4549931 28.846006,5.8791755 28,5.7112443 28,5.0083707 z m 36,0 C 64,4.3888481 64.45,4.1600813 65,4.5 65.55,4.8399187 66,4.4715765 66,3.6814617 66,2.891347 66.669675,1.6891085 67.488167,1.0098206 68.69654,0.00695984 69.097529,0.09058254 69.620949,1.4545933 70.3635,3.3896492 69.433647,4.4931324 66.25,5.4549931 64.846006,5.8791755 64,5.7112443 64,5.0083707 z M 2.9367468,3.4237846 C 1.8526185,2.1174898 1.8744618,1.691997 3.0643021,0.93909737 4.9375058,-0.24621663 9,-0.26051057 9,0.91821253 9,4.8523365 5.367972,6.3532317 2.9367468,3.4237846 z m 36.0000002,0 C 37.852618,2.1174898 37.874462,1.691997 39.064302,0.93909737 40.937506,-0.24621663 45,-0.26051057 45,0.91821253 45,4.8523365 41.367972,6.3532317 38.936747,3.4237846 z M 27,1.5 C 27,0.63782146 27.902494,0 29.122445,0 30.89568,0 31.040066,0.24679771 30,1.5 c -1.594864,1.9216936 -3,1.9216936 -3,0 z m 36,0 C 63,0.63782146 63.902494,0 65.122445,0 66.89568,0 67.040066,0.24679771 66,1.5 c -1.594864,1.9216936 -3,1.9216936 -3,0 z"
       id="path2991"
       inkscape:connector-curvature="0" />
    <path
       style="fill:#0f1fb7"
       d="M 28.333333,66.456011 C 28.333333,65.655205 28.708333,65 29.166667,65 29.625,65 30,65.423442 30,65.940983 c 0,0.517541 -0.375,1.172746 -0.833333,1.456011 -0.458334,0.283266 -0.833334,-0.140176 -0.833334,-0.940983 z m 36,0 C 64.333333,65.655205 64.708333,65 65.166667,65 65.625,65 66,65.423442 66,65.940983 c 0,0.517541 -0.375,1.172746 -0.833333,1.456011 -0.458334,0.283266 -0.833334,-0.140176 -0.833334,-0.940983 z M 0.92348873,65.583333 C 0.88140753,65.5375 0.69622526,64.7125 0.51197258,63.75 0.07496654,61.467166 1.2136857,61.511264 2.663842,63.833333 c 0.9061606,1.450994 0.852052,1.833334 -0.2594532,1.833334 -0.7724138,0 -1.43881887,-0.0375 -1.48090007,-0.08333 z M 16.923489,65.75 C 16.305135,63.729535 16.352569,62 17.026335,62 c 0.467152,0 0.781572,0.9 0.698712,2 -0.128562,1.706698 -0.539939,2.604837 -0.801558,1.75 z m 19.012076,-1.327639 c -0.715781,-0.862463 -0.690492,-1.45579 0.08241,-1.933469 0.613299,-0.37904 1.212486,-0.531602 1.331526,-0.339028 0.11904,0.192575 0.756957,1.062636 1.417592,1.933469 0.966934,1.274588 0.908661,1.583334 -0.298844,1.583334 -0.825,0 -1.964707,-0.559938 -2.532682,-1.244306 z M 52.923489,65.75 C 52.305135,63.729535 52.352569,62 53.026335,62 c 0.467152,0 0.781572,0.9 0.698712,2 -0.128562,1.706698 -0.539939,2.604837 -0.801558,1.75 z M 19.666667,64.333333 C 18.805593,63.472259 20.907013,61 22.5,61 c 0.690311,0 1.785324,0.638868 2.433363,1.419707 0.949829,1.144474 0.828167,1.363237 -0.627556,1.128425 -0.993194,-0.160205 -2.297211,0.09702 -2.897816,0.571617 -0.600605,0.474595 -1.384201,0.570707 -1.741324,0.213584 z m 36,0 C 54.805593,63.472259 56.907013,61 58.5,61 c 0.690311,0 1.785324,0.638868 2.433363,1.419707 0.949829,1.144474 0.828167,1.363237 -0.627556,1.128425 -0.993194,-0.160205 -2.297211,0.09702 -2.897816,0.571617 -0.600605,0.474595 -1.384201,0.570707 -1.741324,0.213584 z M 8.3881524,61.569126 C 8.0594053,60.712424 7.2750836,60.29992 6.6452152,60.652448 5.9639098,61.033765 6.00925,60.744985 6.7571429,59.939562 c 1.0537525,-1.134812 1.5141942,-1.096796 2.8459613,0.234971 1.0888318,1.088831 1.2417068,1.803345 0.4857948,2.270525 -0.6066638,0.374938 -1.3719995,-0.01923 -1.7007466,-0.875932 z m 35.9999996,0 c -0.328747,-0.856702 -1.113068,-1.269206 -1.742937,-0.916678 -0.681305,0.381317 -0.635965,0.09254 0.111928,-0.712886 1.053752,-1.134812 1.514194,-1.096796 2.845961,0.234971 1.088832,1.088831 1.241707,1.803345 0.485795,2.270525 -0.606664,0.374938 -1.372,-0.01923 -1.700747,-0.875932 z M 29.525646,60.041495 c -0.906697,-1.467065 2.392059,-2.566009 3.549905,-1.182611 0.517614,0.618447 0.64127,0.907104 0.274792,0.641459 -0.366479,-0.265645 -1.230166,-0.01504 -1.919306,0.556891 -0.868704,0.720961 -1.453069,0.716134 -1.905391,-0.01574 z m 36,0 c -0.906697,-1.467065 2.392059,-2.566009 3.549905,-1.182611 0.517614,0.618447 0.64127,0.907104 0.274792,0.641459 -0.366479,-0.265645 -1.230166,-0.01504 -1.919306,0.556891 -0.868704,0.720961 -1.453069,0.716134 -1.905391,-0.01574 z M 0.2628263,55.839012 c -0.12124995,-1.609633 0.12265125,-1.853534 0.9880927,-0.988093 0.7568224,0.756822 0.8117786,1.486383 0.1609883,2.137174 -0.65079016,0.65079 -1.04304877,0.258531 -1.149081,-1.149081 z M 11.649873,57.097454 C 11.49609,56.768854 11.399458,55.867898 11.435134,55.095329 11.505411,53.573476 15,52.58648 15,54.088484 c 0,0.501334 0.5625,0.799016 1.25,0.661516 0.6875,-0.1375 1.25,0.401901 1.25,1.19867 0,1.406136 -5.247451,2.436574 -5.850127,1.148784 z m 2.73704,-1.280433 c -0.28881,-0.467304 -0.944015,-0.590747 -1.456011,-0.274316 -1.308382,0.808625 -1.161058,1.123962 0.525109,1.123962 0.800807,0 1.219712,-0.382341 0.930902,-0.849646 z m 21.875913,0.02199 c -0.12125,-1.609633 0.122652,-1.853534 0.988093,-0.988093 0.756822,0.756822 0.811779,1.486383 0.160988,2.137174 -0.65079,0.65079 -1.043048,0.258531 -1.149081,-1.149081 z m 11.387047,1.258442 C 47.49609,56.768854 47.399458,55.867898 47.435134,55.095329 47.505411,53.573476 51,52.58648 51,54.088484 c 0,0.501334 0.5625,0.799016 1.25,0.661516 0.6875,-0.1375 1.25,0.401901 1.25,1.19867 0,1.406136 -5.247451,2.436574 -5.850127,1.148784 z m 2.73704,-1.280433 c -0.28881,-0.467304 -0.944015,-0.590747 -1.456011,-0.274316 -1.308382,0.808625 -1.161058,1.123962 0.525109,1.123962 0.800807,0 1.219712,-0.382341 0.930902,-0.849646 z M 20.333333,55.5 c 0,-1.367673 3.928908,-1.39016 4.666667,-0.02671 0.275,0.508227 -0.6625,0.986148 -2.083333,1.062046 -1.420834,0.0759 -2.583334,-0.390003 -2.583334,-1.035337 z m 36,0 c 0,-1.367673 3.928908,-1.39016 4.666667,-0.02671 0.275,0.508227 -0.6625,0.986148 -2.083333,1.062046 C 57.495833,56.611236 56.333333,56.145334 56.333333,55.5 z M 3.4405887,53.903871 C 2.5734656,52.500836 5.9784172,51.578417 7.2672174,52.867217 7.8902478,53.490248 8.1975,54.03443 7.95,54.076511 7.7025,54.118592 6.7142869,54.303512 5.7539708,54.487445 4.7936547,54.671377 3.7526328,54.408768 3.4405887,53.903871 z M 31,54 c 0,-0.55 0.45,-1 1,-1 0.55,0 1,0.45 1,1 0,0.55 -0.45,1 -1,1 -0.55,0 -1,-0.45 -1,-1 z m 8.440589,-0.09613 c -0.867123,-1.403035 2.537828,-2.325454 3.826628,-1.036654 0.623031,0.623031 0.930283,1.167213 0.682783,1.209294 -0.2475,0.04208 -1.235713,0.227001 -2.196029,0.410934 -0.960316,0.183932 -2.001338,-0.07868 -2.313382,-0.583574 z M 67,54 c 0,-0.55 0.45,-1 1,-1 0.55,0 1,0.45 1,1 0,0.55 -0.45,1 -1,1 -0.55,0 -1,-0.45 -1,-1 z M 28.257071,50.237392 C 28.349767,49.006826 28.779847,48 29.212804,48 c 1.043496,0 0.972169,1.159004 -0.18385,2.987392 -0.739091,1.168964 -0.904339,1.008401 -0.771883,-0.75 z m 36,0 C 64.349767,49.006826 64.779847,48 65.212804,48 c 1.043496,0 0.972169,1.159004 -0.18385,2.987392 -0.739091,1.168964 -0.904339,1.008401 -0.771883,-0.75 z M 0.92348873,48.583333 C 0.88140753,48.5375 0.69622526,47.7125 0.51197258,46.75 0.07496654,44.467166 1.2136857,44.511264 2.663842,46.833333 c 0.9061606,1.450994 0.852052,1.833334 -0.2594532,1.833334 -0.7724138,0 -1.43881887,-0.0375 -1.48090007,-0.08333 z M 16.923489,48.75 C 16.305135,46.729535 16.352569,45 17.026335,45 c 0.467152,0 0.781572,0.9 0.698712,2 -0.128562,1.706698 -0.539939,2.604837 -0.801558,1.75 z m 19.012076,-1.327639 c -0.715781,-0.862463 -0.690492,-1.45579 0.08241,-1.933469 0.613299,-0.37904 1.212486,-0.531602 1.331526,-0.339028 0.11904,0.192575 0.756957,1.062636 1.417592,1.933469 0.966934,1.274588 0.908661,1.583334 -0.298844,1.583334 -0.825,0 -1.964707,-0.559938 -2.532682,-1.244306 z M 52.923489,48.75 C 52.305135,46.729535 52.352569,45 53.026335,45 c 0.467152,0 0.781572,0.9 0.698712,2 -0.128562,1.706698 -0.539939,2.604837 -0.801558,1.75 z M 19.666667,47.333333 C 18.805593,46.472259 20.907013,44 22.5,44 c 0.690311,0 1.785324,0.638868 2.433363,1.419707 0.949829,1.144474 0.828167,1.363237 -0.627556,1.128425 -0.993194,-0.160205 -2.297211,0.09702 -2.897816,0.571617 -0.600605,0.474595 -1.384201,0.570707 -1.741324,0.213584 z m 36,0 C 54.805593,46.472259 56.907013,44 58.5,44 c 0.690311,0 1.785324,0.638868 2.433363,1.419707 0.949829,1.144474 0.828167,1.363237 -0.627556,1.128425 -0.993194,-0.160205 -2.297211,0.09702 -2.897816,0.571617 -0.600605,0.474595 -1.384201,0.570707 -1.741324,0.213584 z M 8.3881524,44.569126 C 8.0594053,43.712424 7.2750836,43.29992 6.6452152,43.652448 5.9639098,44.033765 6.00925,43.744985 6.7571429,42.939562 c 1.0537525,-1.134812 1.5141942,-1.096796 2.8459613,0.234971 1.0888318,1.088831 1.2417068,1.803345 0.4857948,2.270525 -0.6066638,0.374938 -1.3719995,-0.01923 -1.7007466,-0.875932 z m 35.9999996,0 c -0.328747,-0.856702 -1.113068,-1.269206 -1.742937,-0.916678 -0.681305,0.381317 -0.635965,0.09254 0.111928,-0.712886 1.053752,-1.134812 1.514194,-1.096796 2.845961,0.234971 1.088832,1.088831 1.241707,1.803345 0.485795,2.270525 -0.606664,0.374938 -1.372,-0.01923 -1.700747,-0.875932 z M 29.525646,43.041495 c -0.906697,-1.467065 2.392059,-2.566009 3.549905,-1.182611 0.517614,0.618447 0.64127,0.907104 0.274792,0.641459 -0.366479,-0.265645 -1.230166,-0.01504 -1.919306,0.556891 -0.868704,0.720961 -1.453069,0.716134 -1.905391,-0.01574 z m 36,0 c -0.906697,-1.467065 2.392059,-2.566009 3.549905,-1.182611 0.517614,0.618447 0.64127,0.907104 0.274792,0.641459 -0.366479,-0.265645 -1.230166,-0.01504 -1.919306,0.556891 -0.868704,0.720961 -1.453069,0.716134 -1.905391,-0.01574 z M 0.2628263,38.839012 c -0.12124995,-1.609633 0.12265125,-1.853534 0.9880927,-0.988093 0.7568224,0.756822 0.8117786,1.486383 0.1609883,2.137174 -0.65079016,0.65079 -1.04304877,0.258531 -1.149081,-1.149081 z M 11.649873,40.097454 C 11.49609,39.768854 11.399458,38.867898 11.435134,38.095329 11.505411,36.573476 15,35.58648 15,37.088484 c 0,0.501334 0.5625,0.799016 1.25,0.661516 0.6875,-0.1375 1.25,0.401901 1.25,1.19867 0,1.406136 -5.247451,2.436574 -5.850127,1.148784 z m 2.73704,-1.280433 c -0.28881,-0.467304 -0.944015,-0.590747 -1.456011,-0.274316 -1.308382,0.808625 -1.161058,1.123962 0.525109,1.123962 0.800807,0 1.219712,-0.382341 0.930902,-0.849646 z m 21.875913,0.02199 c -0.12125,-1.609633 0.122652,-1.853534 0.988093,-0.988093 0.756822,0.756822 0.811779,1.486383 0.160988,2.137174 -0.65079,0.65079 -1.043048,0.258531 -1.149081,-1.149081 z m 11.387047,1.258442 C 47.49609,39.768854 47.399458,38.867898 47.435134,38.095329 47.505411,36.573476 51,35.58648 51,37.088484 c 0,0.501334 0.5625,0.799016 1.25,0.661516 0.6875,-0.1375 1.25,0.401901 1.25,1.19867 0,1.406136 -5.247451,2.436574 -5.850127,1.148784 z m 2.73704,-1.280433 c -0.28881,-0.467304 -0.944015,-0.590747 -1.456011,-0.274316 -1.308382,0.808625 -1.161058,1.123962 0.525109,1.123962 0.800807,0 1.219712,-0.382341 0.930902,-0.849646 z M 20.333333,38.5 c 0,-1.367673 3.928908,-1.39016 4.666667,-0.02671 0.275,0.508227 -0.6625,0.986148 -2.083333,1.062046 -1.420834,0.0759 -2.583334,-0.390003 -2.583334,-1.035337 z m 36,0 c 0,-1.367673 3.928908,-1.39016 4.666667,-0.02671 0.275,0.508227 -0.6625,0.986148 -2.083333,1.062046 C 57.495833,39.611236 56.333333,39.145334 56.333333,38.5 z M 3.4405887,36.903871 C 2.5734656,35.500836 5.9784172,34.578417 7.2672174,35.867217 7.8902478,36.490248 8.1975,37.03443 7.95,37.076511 7.7025,37.118592 6.7142869,37.303512 5.7539708,37.487445 4.7936547,37.671377 3.7526328,37.408768 3.4405887,36.903871 z M 31,37 c 0,-0.55 0.45,-1 1,-1 0.55,0 1,0.45 1,1 0,0.55 -0.45,1 -1,1 -0.55,0 -1,-0.45 -1,-1 z m 8.440589,-0.09613 c -0.867123,-1.403035 2.537828,-2.325454 3.826628,-1.036654 0.623031,0.623031 0.930283,1.167213 0.682783,1.209294 -0.2475,0.04208 -1.235713,0.227001 -2.196029,0.410934 -0.960316,0.183932 -2.001338,-0.07868 -2.313382,-0.583574 z M 67,37 c 0,-0.55 0.45,-1 1,-1 0.55,0 1,0.45 1,1 0,0.55 -0.45,1 -1,1 -0.55,0 -1,-0.45 -1,-1 z M 28.257071,33.237392 C 28.349767,32.006826 28.779847,31 29.212804,31 c 1.043496,0 0.972169,1.159004 -0.18385,2.987392 -0.739091,1.168964 -0.904339,1.008401 -0.771883,-0.75 z m 36,0 C 64.349767,32.006826 64.779847,31 65.212804,31 c 1.043496,0 0.972169,1.159004 -0.18385,2.987392 -0.739091,1.168964 -0.904339,1.008401 -0.771883,-0.75 z M 0.92348873,31.583333 C 0.88140753,31.5375 0.69622526,30.7125 0.51197258,29.75 0.07496654,27.467166 1.2136857,27.511264 2.663842,29.833333 c 0.9061606,1.450994 0.852052,1.833334 -0.2594532,1.833334 -0.7724138,0 -1.43881887,-0.0375 -1.48090007,-0.08333 z M 16.923489,31.75 C 16.305135,29.729535 16.352569,28 17.026335,28 c 0.467152,0 0.781572,0.9 0.698712,2 -0.128562,1.706698 -0.539939,2.604837 -0.801558,1.75 z m 19.012076,-1.327639 c -0.715781,-0.862463 -0.690492,-1.45579 0.08241,-1.933469 0.613299,-0.37904 1.212486,-0.531602 1.331526,-0.339028 0.11904,0.192575 0.756957,1.062636 1.417592,1.933469 0.966934,1.274588 0.908661,1.583334 -0.298844,1.583334 -0.825,0 -1.964707,-0.559938 -2.532682,-1.244306 z M 52.923489,31.75 C 52.305135,29.729535 52.352569,28 53.026335,28 c 0.467152,0 0.781572,0.9 0.698712,2 -0.128562,1.706698 -0.539939,2.604837 -0.801558,1.75 z M 19.666667,30.333333 C 18.805593,29.472259 20.907013,27 22.5,27 c 0.690311,0 1.785324,0.638868 2.433363,1.419707 0.949829,1.144474 0.828167,1.363237 -0.627556,1.128425 -0.993194,-0.160205 -2.297211,0.09702 -2.897816,0.571617 -0.600605,0.474595 -1.384201,0.570707 -1.741324,0.213584 z m 36,0 C 54.805593,29.472259 56.907013,27 58.5,27 c 0.690311,0 1.785324,0.638868 2.433363,1.419707 0.949829,1.144474 0.828167,1.363237 -0.627556,1.128425 -0.993194,-0.160205 -2.297211,0.09702 -2.897816,0.571617 -0.600605,0.474595 -1.384201,0.570707 -1.741324,0.213584 z M 8.3881524,27.569126 C 8.0594053,26.712424 7.2750836,26.29992 6.6452152,26.652448 5.9639098,27.033765 6.00925,26.744985 6.7571429,25.939562 c 1.0537525,-1.134812 1.5141942,-1.096796 2.8459613,0.234971 1.0888318,1.088831 1.2417068,1.803345 0.4857948,2.270525 -0.6066638,0.374938 -1.3719995,-0.01923 -1.7007466,-0.875932 z m 35.9999996,0 c -0.328747,-0.856702 -1.113068,-1.269206 -1.742937,-0.916678 -0.681305,0.381317 -0.635965,0.09254 0.111928,-0.712886 1.053752,-1.134812 1.514194,-1.096796 2.845961,0.234971 1.088832,1.088831 1.241707,1.803345 0.485795,2.270525 -0.606664,0.374938 -1.372,-0.01923 -1.700747,-0.875932 z M 29.525646,26.041495 c -0.906697,-1.467065 2.392059,-2.566009 3.549905,-1.182611 0.517614,0.618447 0.64127,0.907104 0.274792,0.641459 -0.366479,-0.265645 -1.230166,-0.01504 -1.919306,0.556891 -0.868704,0.720961 -1.453069,0.716134 -1.905391,-0.01574 z m 36,0 c -0.906697,-1.467065 2.392059,-2.566009 3.549905,-1.182611 0.517614,0.618447 0.64127,0.907104 0.274792,0.641459 -0.366479,-0.265645 -1.230166,-0.01504 -1.919306,0.556891 -0.868704,0.720961 -1.453069,0.716134 -1.905391,-0.01574 z M 0.2628263,21.839012 c -0.12124995,-1.609633 0.12265125,-1.853534 0.9880927,-0.988093 0.7568224,0.756822 0.8117786,1.486383 0.1609883,2.137174 -0.65079016,0.65079 -1.04304877,0.258531 -1.149081,-1.149081 z M 11.649873,23.097454 C 11.49609,22.768854 11.399458,21.867898 11.435134,21.095329 11.505411,19.573476 15,18.58648 15,20.088484 c 0,0.501334 0.5625,0.799016 1.25,0.661516 0.6875,-0.1375 1.25,0.401901 1.25,1.19867 0,1.406136 -5.247451,2.436574 -5.850127,1.148784 z m 2.73704,-1.280433 c -0.28881,-0.467304 -0.944015,-0.590747 -1.456011,-0.274316 -1.308382,0.808625 -1.161058,1.123962 0.525109,1.123962 0.800807,0 1.219712,-0.382341 0.930902,-0.849646 z m 21.875913,0.02199 c -0.12125,-1.609633 0.122652,-1.853534 0.988093,-0.988093 0.756822,0.756822 0.811779,1.486383 0.160988,2.137174 -0.65079,0.65079 -1.043048,0.258531 -1.149081,-1.149081 z m 11.387047,1.258442 C 47.49609,22.768854 47.399458,21.867898 47.435134,21.095329 47.505411,19.573476 51,18.58648 51,20.088484 c 0,0.501334 0.5625,0.799016 1.25,0.661516 0.6875,-0.1375 1.25,0.401901 1.25,1.19867 0,1.406136 -5.247451,2.436574 -5.850127,1.148784 z m 2.73704,-1.280433 c -0.28881,-0.467304 -0.944015,-0.590747 -1.456011,-0.274316 -1.308382,0.808625 -1.161058,1.123962 0.525109,1.123962 0.800807,0 1.219712,-0.382341 0.930902,-0.849646 z M 20.333333,21.5 c 0,-1.367673 3.928908,-1.39016 4.666667,-0.02671 0.275,0.508227 -0.6625,0.986148 -2.083333,1.062046 -1.420834,0.0759 -2.583334,-0.390003 -2.583334,-1.035337 z m 36,0 c 0,-1.367673 3.928908,-1.39016 4.666667,-0.02671 0.275,0.508227 -0.6625,0.986148 -2.083333,1.062046 C 57.495833,22.611236 56.333333,22.145334 56.333333,21.5 z M 3.4405887,19.903871 C 2.5734656,18.500836 5.9784172,17.578417 7.2672174,18.867217 7.8902478,19.490248 8.1975,20.03443 7.95,20.076511 7.7025,20.118592 6.7142869,20.303512 5.7539708,20.487445 4.7936547,20.671377 3.7526328,20.408768 3.4405887,19.903871 z M 31,20 c 0,-0.55 0.45,-1 1,-1 0.55,0 1,0.45 1,1 0,0.55 -0.45,1 -1,1 -0.55,0 -1,-0.45 -1,-1 z m 8.440589,-0.09613 c -0.867123,-1.403035 2.537828,-2.325454 3.826628,-1.036654 0.623031,0.623031 0.930283,1.167213 0.682783,1.209294 -0.2475,0.04208 -1.235713,0.227001 -2.196029,0.410934 -0.960316,0.183932 -2.001338,-0.07868 -2.313382,-0.583574 z M 67,20 c 0,-0.55 0.45,-1 1,-1 0.55,0 1,0.45 1,1 0,0.55 -0.45,1 -1,1 -0.55,0 -1,-0.45 -1,-1 z M 28.257071,16.237392 C 28.349767,15.006826 28.779847,14 29.212804,14 c 1.043496,0 0.972169,1.159004 -0.18385,2.987392 -0.739091,1.168964 -0.904339,1.008401 -0.771883,-0.75 z m 36,0 C 64.349767,15.006826 64.779847,14 65.212804,14 c 1.043496,0 0.972169,1.159004 -0.18385,2.987392 -0.739091,1.168964 -0.904339,1.008401 -0.771883,-0.75 z M 0.92348873,14.583333 C 0.88140753,14.5375 0.69622526,13.7125 0.51197258,12.75 0.07496654,10.467166 1.2136857,10.511264 2.663842,12.833333 c 0.9061606,1.450994 0.852052,1.833334 -0.2594532,1.833334 -0.7724138,0 -1.43881887,-0.0375 -1.48090007,-0.08333 z M 16.923489,14.75 C 16.305135,12.729535 16.352569,11 17.026335,11 c 0.467152,0 0.781572,0.9 0.698712,2 -0.128562,1.706698 -0.539939,2.604837 -0.801558,1.75 z m 19.012076,-1.327639 c -0.715781,-0.862463 -0.690492,-1.45579 0.08241,-1.933469 0.613299,-0.37904 1.212486,-0.531602 1.331526,-0.339028 0.11904,0.192575 0.756957,1.062636 1.417592,1.933469 0.966934,1.274588 0.908661,1.583334 -0.298844,1.583334 -0.825,0 -1.964707,-0.559938 -2.532682,-1.244306 z M 52.923489,14.75 C 52.305135,12.729535 52.352569,11 53.026335,11 c 0.467152,0 0.781572,0.9 0.698712,2 -0.128562,1.706698 -0.539939,2.604837 -0.801558,1.75 z M 19.666667,13.333333 C 18.805593,12.472259 20.907013,10 22.5,10 c 0.690311,0 1.785324,0.638868 2.433363,1.419707 0.949829,1.144474 0.828167,1.363237 -0.627556,1.128425 -0.993194,-0.160205 -2.297211,0.09702 -2.897816,0.571617 -0.600605,0.474595 -1.384201,0.570707 -1.741324,0.213584 z m 36,0 C 54.805593,12.472259 56.907013,10 58.5,10 c 0.690311,0 1.785324,0.638868 2.433363,1.419707 0.949829,1.144474 0.828167,1.363237 -0.627556,1.128425 -0.993194,-0.160205 -2.297211,0.09702 -2.897816,0.571617 -0.600605,0.474595 -1.384201,0.570707 -1.741324,0.213584 z M 8.3881524,10.569126 C 8.0594053,9.7124245 7.2750836,9.2999195 6.6452152,9.652448 5.9639098,10.033765 6.00925,9.7449852 6.7571429,8.9395615 7.8108954,7.8047502 8.2713371,7.8427657 9.6031042,9.1745328 10.691936,10.263364 10.844811,10.977878 10.088899,11.445058 9.4822352,11.819996 8.7168995,11.425827 8.3881524,10.569126 z m 35.9999996,0 C 44.059405,9.7124245 43.275084,9.2999195 42.645215,9.652448 41.96391,10.033765 42.00925,9.744985 42.757143,8.9395615 c 1.053752,-1.1348113 1.514194,-1.0967958 2.845961,0.2349713 1.088832,1.0888312 1.241707,1.8033452 0.485795,2.2705252 -0.606664,0.374938 -1.372,-0.01923 -1.700747,-0.875932 z M 29.525646,9.0414955 c -0.906697,-1.467066 2.392059,-2.5660099 3.549905,-1.1826114 0.517614,0.6184471 0.64127,0.9071034 0.274792,0.6414585 -0.366479,-0.2656449 -1.230166,-0.015044 -1.919306,0.5568916 -0.868704,0.7209606 -1.453069,0.7161336 -1.905391,-0.015739 z m 36,0 c -0.906697,-1.467066 2.392059,-2.5660099 3.549905,-1.1826114 0.517614,0.6184471 0.64127,0.9071034 0.274792,0.6414585 -0.366479,-0.2656449 -1.230166,-0.015044 -1.919306,0.5568916 -0.868704,0.7209606 -1.453069,0.7161336 -1.905391,-0.015739 z M 0.2628263,4.8390116 C 0.14157635,3.2293788 0.38547755,2.9854776 1.250919,3.850919 2.0077414,4.6077414 2.0626976,5.3373024 1.4119073,5.9880927 0.76111714,6.6388829 0.36885853,6.2466242 0.2628263,4.8390116 z M 11.649873,6.0974544 C 11.49609,5.7688545 11.399458,4.8678982 11.435134,4.0953293 11.505411,2.5734763 15,1.5864797 15,3.0884839 15,3.5898177 15.5625,3.8875 16.25,3.75 c 0.6875,-0.1375 1.25,0.4019014 1.25,1.1986697 0,1.4061367 -5.247451,2.4365742 -5.850127,1.1487847 z m 2.73704,-1.280433 c -0.28881,-0.4673048 -0.944015,-0.5907472 -1.456011,-0.2743163 -1.308382,0.8086245 -1.161058,1.1239616 0.525109,1.1239616 0.800807,0 1.219712,-0.3823404 0.930902,-0.8496453 z m 21.875913,0.02199 c -0.12125,-1.6096328 0.122652,-1.853534 0.988093,-0.9880926 0.756822,0.7568224 0.811779,1.4863834 0.160988,2.1371737 -0.65079,0.6507902 -1.043048,0.2585315 -1.149081,-1.1490811 z m 11.387047,1.258443 C 47.49609,5.7688545 47.399458,4.8678982 47.435134,4.0953293 47.505411,2.5734763 51,1.5864797 51,3.0884839 51,3.5898177 51.5625,3.8875 52.25,3.75 c 0.6875,-0.1375 1.25,0.4019014 1.25,1.1986697 0,1.4061367 -5.247451,2.4365742 -5.850127,1.1487847 z m 2.73704,-1.280433 c -0.28881,-0.4673048 -0.944015,-0.5907472 -1.456011,-0.2743163 -1.308382,0.8086245 -1.161058,1.1239616 0.525109,1.1239616 0.800807,0 1.219712,-0.3823404 0.930902,-0.8496453 z M 20.333333,4.5 C 20.333333,3.1323271 24.262241,3.1098403 25,4.4732907 25.275,4.9815175 24.3375,5.4594385 22.916667,5.5353374 21.495833,5.6112363 20.333333,5.1453344 20.333333,4.5 z m 36,0 C 56.333333,3.1323271 60.262241,3.1098403 61,4.4732907 61.275,4.9815175 60.3375,5.4594385 58.916667,5.5353374 57.495833,5.6112363 56.333333,5.1453344 56.333333,4.5 z M 3.4405887,2.9038705 C 2.5734656,1.5008358 5.9784172,0.57841716 7.2672174,1.8672174 7.8902478,2.4902478 8.1975,3.0344301 7.95,3.0765113 7.7025,3.1185925 6.7142869,3.3035125 5.7539708,3.4874446 4.7936547,3.6713768 3.7526328,3.4087684 3.4405887,2.9038705 z M 31,3 c 0,-0.55 0.45,-1 1,-1 0.55,0 1,0.45 1,1 0,0.55 -0.45,1 -1,1 C 31.45,4 31,3.55 31,3 z M 39.440589,2.903871 C 38.573466,1.5008358 41.978417,0.57841716 43.267217,1.8672174 43.890248,2.4902478 44.1975,3.0344301 43.95,3.0765113 43.7025,3.1185925 42.714287,3.3035125 41.753971,3.4874446 40.793655,3.6713768 39.752633,3.4087684 39.440589,2.9038705 z M 67,3 c 0,-0.55 0.45,-1 1,-1 0.55,0 1,0.45 1,1 0,0.55 -0.45,1 -1,1 -0.55,0 -1,-0.45 -1,-1 z"
       id="path2989"
       inkscape:connector-curvature="0" />
  </g>
</svg>
